<svg width="496" height="471" viewBox="0 0 496 471" fill="none" xmlns="http://www.w3.org/2000/svg">
<path d="M0.608145 86.0055C5.58909 193.019 8.89948 251.319 19.6773 339.314C28.7945 372.963 38.4388 386.885 69.7339 396.383C194.366 426.223 281.795 450.114 383.183 470.473C424.463 469.643 439.18 460.623 452.309 440.437C474.744 369.239 478.939 291.283 495.214 192.135C497.396 153.898 488.372 138.368 452.309 122.049C320.186 75.5122 128.133 11.9153 128.133 11.9153C128.133 11.9153 91.4226 -2.90062 69.7339 0.901948C44.3679 7.57403 33.3327 14.9617 19.6773 29.9373C3.92355 47.6074 -0.202577 59.8942 0.608145 86.0055Z" fill="white"/>
</svg>
