<svg width="538" height="542" viewBox="0 0 538 542" fill="none" xmlns="http://www.w3.org/2000/svg">
<g filter="url(#filter0_d_423_11901)">
<path d="M40.6474 98.1119C29.2848 204.878 23.6857 263.108 20.9623 351.617C24.8701 385.999 32.3043 400.856 61.8613 413.644C180.788 456.646 263.764 489.75 361.107 520.845C402.128 524.453 418.081 517.078 434.162 498.45C467.231 430.181 483.26 353.244 514.482 256.568C522.467 218.844 515.892 202.459 482.65 182.388C358.845 122.006 178.267 38.2542 178.267 38.2542C178.267 38.2542 144.155 19.6051 122.089 21.0514C95.9438 24.9514 83.8864 31.1003 68.0776 44.5005C49.7796 60.3501 43.8207 72.1043 40.6474 98.1119Z" fill="#4874AE"/>
</g>
<defs>
<filter id="filter0_d_423_11901" x="0.962891" y="0.971436" width="536.588" height="540.762" filterUnits="userSpaceOnUse" color-interpolation-filters="sRGB">
<feFlood flood-opacity="0" result="BackgroundImageFix"/>
<feColorMatrix in="SourceAlpha" type="matrix" values="0 0 0 0 0 0 0 0 0 0 0 0 0 0 0 0 0 0 127 0" result="hardAlpha"/>
<feOffset/>
<feGaussianBlur stdDeviation="10"/>
<feComposite in2="hardAlpha" operator="out"/>
<feColorMatrix type="matrix" values="0 0 0 0 0 0 0 0 0 0 0 0 0 0 0 0 0 0 0.1 0"/>
<feBlend mode="normal" in2="BackgroundImageFix" result="effect1_dropShadow_423_11901"/>
<feBlend mode="normal" in="SourceGraphic" in2="effect1_dropShadow_423_11901" result="shape"/>
</filter>
</defs>
</svg>
